<svg width="40" height="60" viewBox="0 0 40 60" fill="none" xmlns="http://www.w3.org/2000/svg">
<g id="android-brands 1">
<path id="Vector" d="M29.2049 35.3825C28.8752 35.3825 28.553 35.2176 28.2789 34.9086C28.0048 34.5995 27.7912 34.1603 27.6651 33.6463C27.5389 33.1324 27.5059 32.5669 27.5702 32.0214C27.6345 31.4758 27.7933 30.9746 28.0264 30.5813C28.2594 30.188 28.5564 29.9201 28.8797 29.8116C29.203 29.7031 29.5381 29.7588 29.8427 29.9716C30.1472 30.1845 30.4075 30.545 30.5906 31.0075C30.7738 31.47 30.8715 32.0138 30.8715 32.57C30.8715 33.316 30.6959 34.0313 30.3834 34.5588C30.0708 35.0862 29.6469 35.3825 29.2049 35.3825ZM10.7951 35.3825C10.4655 35.3825 10.1433 35.2176 9.86919 34.9086C9.59511 34.5995 9.38149 34.1603 9.25534 33.6463C9.12919 33.1324 9.09619 32.5669 9.1605 32.0214C9.22481 31.4758 9.38354 30.9746 9.61663 30.5813C9.84972 30.188 10.1467 29.9201 10.47 29.8116C10.7933 29.7031 11.1284 29.7588 11.4329 29.9716C11.7375 30.1845 11.9978 30.545 12.1809 31.0075C12.3641 31.47 12.4618 32.0138 12.4618 32.57C12.4618 33.316 12.2862 34.0313 11.9737 34.5588C11.6611 35.0862 11.2372 35.3825 10.7951 35.3825ZM29.8021 18.4513L33.1313 8.72474C33.1842 8.59153 33.2204 8.44139 33.2376 8.28362C33.2548 8.12584 33.2526 7.96379 33.2312 7.80751C33.2097 7.65122 33.1695 7.50403 33.113 7.37505C33.0565 7.24606 32.9848 7.13803 32.9026 7.05765C32.8203 6.97726 32.7291 6.92624 32.6347 6.90773C32.5403 6.88922 32.4446 6.90362 32.3536 6.95005C32.2626 6.99647 32.1783 7.07393 32.1057 7.17762C32.0332 7.28131 31.974 7.40903 31.9319 7.55286L28.5611 17.4048C25.8686 15.367 22.951 14.3134 20 14.3134C17.049 14.3134 14.1314 15.367 11.4389 17.4048L8.06806 7.55286C8.02596 7.40903 7.96682 7.28131 7.89428 7.17762C7.82175 7.07393 7.73737 6.99647 7.64638 6.95005C7.55539 6.90362 7.45971 6.88922 7.36528 6.90773C7.27086 6.92624 7.17969 6.97726 7.09742 7.05765C7.01516 7.13803 6.94355 7.24606 6.88703 7.37505C6.83051 7.50403 6.79029 7.65122 6.76885 7.80751C6.74741 7.96379 6.74522 8.12584 6.7624 8.28362C6.77959 8.44139 6.81578 8.59153 6.86875 8.72474L10.1979 18.4513C4.48125 23.6978 0.572222 33.463 0 45.0001H40C39.4278 33.463 35.5181 23.6978 29.8021 18.4513Z" fill="white"/>
</g>
</svg>
