<svg width="40" height="60" viewBox="0 0 40 60" fill="none" xmlns="http://www.w3.org/2000/svg">
<g id="apple-brands 1">
<path id="Vector" d="M33.1979 31.4883C33.1771 27.1875 34.9063 23.9414 38.4063 21.5508C36.4479 18.3984 33.4896 16.6641 29.5834 16.3242C25.8854 15.9961 21.8438 18.75 20.3646 18.75C18.8021 18.75 15.2188 16.4414 12.4063 16.4414C6.59377 16.5469 0.416687 21.6562 0.416687 32.0508C0.416687 35.1211 0.916687 38.293 1.91669 41.5664C3.25002 45.8672 8.06252 56.4141 13.0834 56.2383C15.7084 56.168 17.5625 54.1406 20.9792 54.1406C24.2917 54.1406 26.0104 56.2383 28.9375 56.2383C34 56.1562 38.3542 46.5703 39.625 42.2578C32.8334 38.6602 33.1979 31.7109 33.1979 31.4883ZM27.3021 12.2461C30.1459 8.44922 29.8854 4.99219 29.8021 3.75C27.2917 3.91406 24.3854 5.67188 22.7292 7.83984C20.9063 10.1602 19.8334 13.0312 20.0625 16.2656C22.7813 16.5 25.2604 14.9297 27.3021 12.2461Z" fill="white"/>
</g>
</svg>
