<svg width="86" height="86" viewBox="0 0 86 86" fill="none" xmlns="http://www.w3.org/2000/svg">
<g id="hat-cowboy-side-solid 1" clip-path="url(#clip0_138_31)">
<path id="Vector" d="M35.045 48.889C31.1978 45.0358 26.7137 43 22.0912 43C11.6906 43 2.88502 53.535 0.192148 69.2132C-0.284883 72.0015 0.134367 74.8956 1.34374 77.1581C2.51952 79.3602 4.27715 80.625 6.16512 80.625H79.55C65.6812 80.625 58.7219 74.3984 48.2151 63.079L35.045 48.889ZM66.5761 45.8168L62.9412 19.518C62.7456 18.0909 62.3214 16.728 61.694 15.5109C61.0667 14.2938 60.2491 13.2477 59.2903 12.4353C58.3316 11.6229 57.2514 11.0609 56.1146 10.7832C54.9779 10.5054 53.8079 10.5176 52.675 10.8189L26.9892 17.6367C25.215 18.1074 23.6053 19.2671 22.3901 20.9502C21.1749 22.6332 20.4166 24.7535 20.2234 27.0077L19.2976 37.9609C20.2248 37.8215 21.1385 37.625 22.0912 37.625C27.7068 37.625 33.11 40.069 37.8521 44.8174L51.0208 59.0074C60.5709 69.2938 66.5022 75.25 79.55 75.25C81.2606 75.25 82.9012 74.4006 84.1108 72.8885C85.3204 71.3765 86 69.3258 86 67.1875C86 62.9228 82.0225 47.1438 66.5761 45.8168Z" fill="black"/>
</g>
<defs>
<clipPath id="clip0_138_31">
<rect width="86" height="86" fill="white"/>
</clipPath>
</defs>
</svg>
