<svg width="86" height="86" viewBox="0 0 86 86" fill="none" xmlns="http://www.w3.org/2000/svg">
<g filter="url(#filter0_d_136_5)">
<path d="M69.2787 0H16.7232C16.1259 0 15.5586 0.335938 15.2301 0.907031L0.299545 25.632C-0.133441 26.3711 -0.0886494 27.3453 0.404059 28.0172L41.6124 85.2609C42.3291 86.252 43.6728 86.252 44.3895 85.2609L85.5978 28.0172C86.0905 27.3285 86.1353 26.3711 85.7023 25.632L70.7867 0.907031C70.4433 0.335938 69.8908 0 69.2787 0ZM66.3971 8.0625L75.8481 24.1875H65.6356L57.9165 8.0625H66.3971V8.0625ZM36.2225 8.0625H49.7645L57.4836 24.1875H28.5183L36.2225 8.0625ZM19.6048 8.0625H28.0853L20.3662 24.1875H10.1537L19.6048 8.0625ZM13.1846 32.25H20.8589L31.0565 59.125L13.1846 32.25V32.25ZM28.5482 32.25H57.4537L43.0009 73.1168L28.5482 32.25V32.25ZM54.9454 59.125L65.128 32.25H72.8023L54.9454 59.125Z" fill="black"/>
<path d="M15.6582 1.16555L15.6581 1.16549L0.72941 25.8874C0.39608 26.4589 0.43634 27.2157 0.807261 27.7215L0.809866 27.7251L0.80985 27.7251L42.0175 84.9679C42.0177 84.9681 42.0178 84.9682 42.0179 84.9684C42.5349 85.6828 43.4669 85.6828 43.984 84.9684C43.9841 84.9682 43.9842 84.9681 43.9843 84.9679L85.1911 27.7263L15.6582 1.16555ZM15.6582 1.16555L15.6635 1.15632M15.6582 1.16555L15.6635 1.15632M15.6635 1.15632C15.91 0.727853 16.3188 0.5 16.7232 0.5H69.2787C69.6944 0.5 70.0938 0.725063 70.3582 1.16469L70.3586 1.1653M15.6635 1.15632L70.3586 1.1653M70.3586 1.1653L85.2709 25.8848C85.2714 25.8856 85.2718 25.8864 85.2723 25.8872M70.3586 1.1653L85.2723 25.8872M85.2723 25.8872C85.6041 26.4559 85.5682 27.1983 85.192 27.7251L85.2723 25.8872ZM75.8481 24.6875H76.7207L76.2795 23.9347L66.8285 7.80967L66.3971 8.0625V7.5625H57.9165H57.1229L57.4656 8.27839L65.1847 24.4034L65.3207 24.6875H65.6356H75.8481ZM36.2225 7.5625H35.9072L35.7713 7.84695L28.0671 23.972L27.7253 24.6875H28.5183H57.4836H58.2772L57.9346 23.9716L50.2155 7.84661L50.0794 7.5625H49.7645H36.2225ZM19.6047 7.5625H19.3183L19.1734 7.80967L9.72234 23.9347L9.2811 24.6875H10.1537H20.3662H20.6812L20.8172 24.4034L28.5363 8.27839L28.879 7.5625H28.0853H19.6047ZM21.3264 32.0726L21.204 31.75H20.8589H13.1846V32.25L12.7683 32.5269L30.6401 59.4019L31.524 58.9476L21.3264 32.0726ZM57.9251 32.4167L58.1609 31.75H57.4537H28.5481V32.25L28.0768 32.4167L42.5295 73.2835L43.0009 74.6164L43.4723 73.2835L57.9251 32.4167ZM54.4778 58.9478L55.3618 59.4017L73.2188 32.5267L73.7348 31.75H72.8023H65.128H64.7828L64.6604 32.0728L54.4778 58.9478Z" stroke="black"/>
</g>
<defs>
<filter id="filter0_d_136_5" x="-3.99759" y="0" width="93.997" height="94.0042" filterUnits="userSpaceOnUse" color-interpolation-filters="sRGB">
<feFlood flood-opacity="0" result="BackgroundImageFix"/>
<feColorMatrix in="SourceAlpha" type="matrix" values="0 0 0 0 0 0 0 0 0 0 0 0 0 0 0 0 0 0 127 0" result="hardAlpha"/>
<feOffset dy="4"/>
<feGaussianBlur stdDeviation="2"/>
<feComposite in2="hardAlpha" operator="out"/>
<feColorMatrix type="matrix" values="0 0 0 0 0 0 0 0 0 0 0 0 0 0 0 0 0 0 0.25 0"/>
<feBlend mode="normal" in2="BackgroundImageFix" result="effect1_dropShadow_136_5"/>
<feBlend mode="normal" in="SourceGraphic" in2="effect1_dropShadow_136_5" result="shape"/>
</filter>
</defs>
</svg>
