<svg width="200" height="40" viewBox="0 0 200 40" fill="none" xmlns="http://www.w3.org/2000/svg">
<g id="Group 66">
<path id="Star 1" d="M20 0L24.4903 13.8197H39.0211L27.2654 22.3607L31.7557 36.1803L20 27.6393L8.2443 36.1803L12.7346 22.3607L0.97887 13.8197H15.5097L20 0Z" fill="black"/>
<path id="Star 2" d="M60 0L64.4903 13.8197H79.0211L67.2654 22.3607L71.7557 36.1803L60 27.6393L48.2443 36.1803L52.7346 22.3607L40.9789 13.8197H55.5097L60 0Z" fill="black"/>
<path id="Star 3" d="M100 0L104.49 13.8197H119.021L107.265 22.3607L111.756 36.1803L100 27.6393L88.2443 36.1803L92.7346 22.3607L80.9789 13.8197H95.5097L100 0Z" fill="black"/>
<path id="Star 4" d="M140 0L144.49 13.8197H159.021L147.265 22.3607L151.756 36.1803L140 27.6393L128.244 36.1803L132.735 22.3607L120.979 13.8197H135.51L140 0Z" fill="black"/>
<path id="Star 5" d="M180 1.61804L184.015 13.9742L184.127 14.3197H184.49H197.482L186.972 21.9562L186.678 22.1697L186.79 22.5152L190.805 34.8713L180.294 27.2348L180 27.0213L179.706 27.2348L169.195 34.8713L173.21 22.5152L173.322 22.1697L173.028 21.9562L162.518 14.3197H175.51H175.873L175.985 13.9742L180 1.61804Z" fill="url(#paint0_angular_156_25)" stroke="black"/>
</g>
<defs>
<radialGradient id="paint0_angular_156_25" cx="0" cy="0" r="1" gradientUnits="userSpaceOnUse" gradientTransform="translate(180 20) rotate(90) scale(24 20)">
<stop offset="0.513831"/>
<stop offset="0.562499" stop-color="white"/>
<stop offset="0.893755" stop-color="white"/>
<stop offset="0.988941"/>
</radialGradient>
</defs>
</svg>
