<svg width="200" height="40" viewBox="0 0 200 40" fill="none" xmlns="http://www.w3.org/2000/svg">
<g id="Group 65">
<path id="Star 1" d="M20 0L24.4903 13.8197H39.0211L27.2654 22.3607L31.7557 36.1803L20 27.6393L8.2443 36.1803L12.7346 22.3607L0.97887 13.8197H15.5097L20 0Z" fill="black"/>
<path id="Star 2" d="M60 0L64.4903 13.8197H79.0211L67.2654 22.3607L71.7557 36.1803L60 27.6393L48.2443 36.1803L52.7346 22.3607L40.9789 13.8197H55.5097L60 0Z" fill="black"/>
<path id="Star 3" d="M100 0L104.49 13.8197H119.021L107.265 22.3607L111.756 36.1803L100 27.6393L88.2443 36.1803L92.7346 22.3607L80.9789 13.8197H95.5097L100 0Z" fill="black"/>
<path id="Star 4" d="M140 0L144.49 13.8197H159.021L147.265 22.3607L151.756 36.1803L140 27.6393L128.244 36.1803L132.735 22.3607L120.979 13.8197H135.51L140 0Z" fill="black"/>
<path id="Star 5" d="M180 0L184.49 13.8197H199.021L187.265 22.3607L191.756 36.1803L180 27.6393L168.244 36.1803L172.735 22.3607L160.979 13.8197H175.51L180 0Z" fill="black"/>
</g>
</svg>
