<svg width="40" height="60" viewBox="0 0 40 60" fill="none" xmlns="http://www.w3.org/2000/svg">
<g id="instagram-brands 1" clip-path="url(#clip0_160_44)">
<path id="Vector" d="M20.0089 16.5234C14.3303 16.5234 9.74997 22.5352 9.74997 29.9883C9.74997 37.4414 14.3303 43.4531 20.0089 43.4531C25.6875 43.4531 30.2678 37.4414 30.2678 29.9883C30.2678 22.5352 25.6875 16.5234 20.0089 16.5234ZM20.0089 38.7422C16.3393 38.7422 13.3393 34.8164 13.3393 29.9883C13.3393 25.1602 16.3303 21.2344 20.0089 21.2344C23.6875 21.2344 26.6785 25.1602 26.6785 29.9883C26.6785 34.8164 23.6785 38.7422 20.0089 38.7422ZM33.0803 15.9727C33.0803 17.7188 32.0089 19.1133 30.6875 19.1133C29.3571 19.1133 28.2946 17.707 28.2946 15.9727C28.2946 14.2383 29.366 12.832 30.6875 12.832C32.0089 12.832 33.0803 14.2383 33.0803 15.9727ZM39.875 19.1602C39.7232 14.9531 38.991 11.2266 36.6428 8.15625C34.3035 5.08594 31.4642 4.125 28.2589 3.91406C24.9553 3.66797 15.0535 3.66797 11.75 3.91406C8.55355 4.11328 5.71426 5.07422 3.36605 8.14453C1.01784 11.2148 0.294625 14.9414 0.133911 19.1484C-0.0535888 23.4844 -0.0535888 36.4805 0.133911 40.8164C0.285697 45.0234 1.01784 48.75 3.36605 51.8203C5.71426 54.8906 8.54462 55.8516 11.75 56.0625C15.0535 56.3086 24.9553 56.3086 28.2589 56.0625C31.4642 55.8633 34.3035 54.9023 36.6428 51.8203C38.9821 48.75 39.7142 45.0234 39.875 40.8164C40.0625 36.4805 40.0625 23.4961 39.875 19.1602ZM35.6071 45.4688C34.9107 47.7656 33.5625 49.5352 31.8035 50.4609C29.1696 51.832 22.9196 51.5156 20.0089 51.5156C17.0982 51.5156 10.8393 51.8203 8.21426 50.4609C6.46426 49.5469 5.11605 47.7773 4.41069 45.4688C3.36605 42.0117 3.60712 33.8086 3.60712 29.9883C3.60712 26.168 3.37498 17.9531 4.41069 14.5078C5.10712 12.2109 6.45533 10.4414 8.21426 9.51562C10.8482 8.14453 17.0982 8.46094 20.0089 8.46094C22.9196 8.46094 29.1785 8.15625 31.8035 9.51562C33.5535 10.4297 34.9017 12.1992 35.6071 14.5078C36.6517 17.9648 36.4107 26.168 36.4107 29.9883C36.4107 33.8086 36.6517 42.0234 35.6071 45.4688Z" fill="white"/>
</g>
<defs>
<clipPath id="clip0_160_44">
<rect width="40" height="60" fill="white"/>
</clipPath>
</defs>
</svg>
