<svg width="22" height="22" viewBox="0 0 22 22" fill="none" xmlns="http://www.w3.org/2000/svg">
<g id="map-marker-alt-solid 1" clip-path="url(#clip0_161_29)">
<path id="Vector" d="M9.86952 21.5561C1.54516 12.5052 0 11.5763 0 8.25C0 3.69364 4.92485 0 11 0C17.0752 0 22 3.69364 22 8.25C22 11.5763 20.4548 12.5052 12.1305 21.5561C11.5842 22.148 10.4157 22.1479 9.86952 21.5561ZM11 11.6875C13.5313 11.6875 15.5833 10.1485 15.5833 8.25C15.5833 6.35151 13.5313 4.8125 11 4.8125C8.46868 4.8125 6.41667 6.35151 6.41667 8.25C6.41667 10.1485 8.46868 11.6875 11 11.6875Z" fill="white"/>
</g>
<defs>
<clipPath id="clip0_161_29">
<rect width="22" height="22" fill="white"/>
</clipPath>
</defs>
</svg>
