<svg width="40" height="60" viewBox="0 0 40 60" fill="none" xmlns="http://www.w3.org/2000/svg">
<g id="cc-mastercard-brands 1">
<path id="Vector" d="M33.5347 48.082C33.5347 48.8789 33.2153 49.4531 32.7569 49.4531C32.2847 49.4531 31.9792 48.8438 31.9792 48.082C31.9792 47.3203 32.2847 46.7109 32.7569 46.7109C33.2153 46.7109 33.5347 47.3203 33.5347 48.082ZM11.9514 46.7109C11.4583 46.7109 11.1736 47.3203 11.1736 48.082C11.1736 48.8438 11.4583 49.4531 11.9514 49.4531C12.4028 49.4531 12.7083 48.8789 12.7083 48.082C12.7014 47.3203 12.4028 46.7109 11.9514 46.7109ZM20.1111 46.6758C19.7361 46.6758 19.5069 47.0859 19.4514 47.6953H20.7778C20.7153 47.0273 20.4722 46.6758 20.1111 46.6758ZM27.5972 46.7109C27.125 46.7109 26.8403 47.3203 26.8403 48.082C26.8403 48.8438 27.125 49.4531 27.5972 49.4531C28.0694 49.4531 28.375 48.8789 28.375 48.082C28.375 47.3203 28.0694 46.7109 27.5972 46.7109ZM34.9514 49.7695C34.9514 49.8047 34.9722 49.8281 34.9722 49.8984C34.9722 49.9336 34.9514 49.957 34.9514 50.0273C34.9306 50.0625 34.9306 50.0859 34.9167 50.1211C34.8958 50.1562 34.8819 50.1797 34.8403 50.1797C34.8194 50.2148 34.8056 50.2148 34.7639 50.2148C34.7431 50.2148 34.7292 50.2148 34.6875 50.1797C34.6667 50.1797 34.6528 50.1445 34.6319 50.1211C34.6111 50.0859 34.5972 50.0625 34.5972 50.0273C34.5764 49.9688 34.5764 49.9336 34.5764 49.8984C34.5764 49.8398 34.5764 49.8047 34.5972 49.7695C34.5972 49.7109 34.6181 49.6758 34.6319 49.6406C34.6528 49.6055 34.6667 49.6055 34.6875 49.582C34.7222 49.5469 34.7431 49.5469 34.7639 49.5469C34.7986 49.5469 34.8194 49.5469 34.8403 49.582C34.875 49.6172 34.8958 49.6172 34.9167 49.6406C34.9375 49.6641 34.9306 49.7109 34.9514 49.7695ZM34.7986 49.9336C34.8333 49.9336 34.8333 49.8984 34.8542 49.8984C34.875 49.8633 34.875 49.8398 34.875 49.8047C34.875 49.7695 34.875 49.7461 34.8542 49.7109C34.8333 49.7109 34.8194 49.6758 34.7778 49.6758H34.6667V50.0859H34.7222V49.9219H34.7431L34.8194 50.0859H34.875L34.7986 49.9336ZM40 9.49219V50.7422C40 53.8477 38.5069 56.3672 36.6667 56.3672H3.33333C1.49306 56.3672 0 53.8477 0 50.7422V9.49219C0 6.38672 1.49306 3.86719 3.33333 3.86719H36.6667C38.5069 3.86719 40 6.38672 40 9.49219ZM4.44444 25.8516C4.44444 34.8164 8.75694 42.082 14.0625 42.082C15.9514 42.082 17.8056 41.1211 19.375 39.375C14.3125 32.4258 14.3472 19.3125 19.375 12.3633C17.8056 10.6055 15.9514 9.65625 14.0625 9.65625C8.75694 9.64453 4.44444 16.9219 4.44444 25.8516ZM20 38.6016C24.8958 32.1562 24.875 19.5938 20 13.1133C15.125 19.5938 15.1042 32.168 20 38.6016ZM10.1181 47.543C10.1181 46.5234 9.72222 45.8555 9.09722 45.8203C8.77778 45.8203 8.4375 45.9844 8.20833 46.582C8.04167 46.1016 7.75694 45.8203 7.36111 45.8203C7.09722 45.8203 6.83333 45.9844 6.625 46.4531V45.9375H6.05556V50.2383H6.625C6.625 48.0234 6.45139 46.6992 7.25 46.6992C7.95833 46.6992 7.81944 47.8945 7.81944 50.2383H8.36806C8.36806 48.0938 8.19444 46.6992 8.99306 46.6992C9.70139 46.6992 9.5625 47.8711 9.5625 50.2383H10.1319V47.543H10.1181ZM13.2361 45.9375H12.6875V46.4531C12.5 46.0664 12.2361 45.8203 11.875 45.8203C11.1597 45.8203 10.6111 46.7812 10.6111 48.082C10.6111 49.3945 11.1597 50.3438 11.875 50.3438C12.2361 50.3438 12.5 50.1211 12.6875 49.7109V50.25H13.2361V45.9375ZM16.0486 48.9375C16.0486 47.1797 14.4583 47.9766 14.4583 47.1562C14.4583 46.4883 15.2847 46.5938 15.7431 47.0273L15.9722 46.2656C15.3194 45.5508 13.875 45.5625 13.875 47.2266C13.875 48.9023 15.4653 48.1992 15.4653 48.9844C15.4653 49.7227 14.5278 49.6641 14.0278 49.0781L13.7847 49.8164C14.5625 50.707 16.0486 50.5195 16.0486 48.9375ZM18.5069 50.0273L18.3542 49.2305C18.0903 49.4766 17.5069 49.7461 17.5069 48.75V46.8047H18.4167V45.9375H17.5069V44.625H16.9375V45.9375H16.4097V46.793H16.9375V48.75C16.9375 50.8125 18.1389 50.4375 18.5069 50.0273ZM19.4306 48.457H21.3403C21.3403 46.5586 20.8264 45.8086 20.1319 45.8086C19.3958 45.8086 18.8681 46.7344 18.8681 48.0703C18.8681 50.4727 20.4375 50.8711 21.2153 49.7344L20.9514 49.0312C20.4097 49.7812 19.5903 49.7109 19.4306 48.457ZM23.5347 45.9375C23.2153 45.7031 22.7292 45.7266 22.4792 46.4531V45.9375H21.9097V50.2383H22.4792V47.8125C22.4792 46.4531 23.1389 46.6289 23.3681 46.8281L23.5347 45.9375ZM24.2708 48.082C24.2708 46.7461 25.0764 46.3125 25.7083 47.0977L25.9722 46.3359C25.1667 45.2695 23.7014 45.8555 23.7014 48.0938C23.7014 50.4141 25.2569 50.8828 25.9722 49.8516L25.7083 49.0898C25.0694 49.8516 24.2708 49.3945 24.2708 48.082ZM28.9028 45.9375H28.3333V46.4531C27.7569 45.1641 26.2569 45.8906 26.2569 48.082C26.2569 50.332 27.8125 50.9766 28.3333 49.7109V50.25H28.9028V45.9375ZM31.2431 45.9375C31.0764 45.7969 30.4792 45.5977 30.1875 46.4531V45.9375H29.6389V50.2383H30.1875V47.8125C30.1875 46.5234 30.8125 46.6055 31.0764 46.8281L31.2431 45.9375ZM34.0417 44.1914H33.4931V46.4531C32.9236 45.1758 31.4167 45.8555 31.4167 48.082C31.4167 50.3555 32.9792 50.9648 33.4931 49.7109V50.25H34.0417V44.1914ZM34.5694 35.3906V35.9297H34.625V35.3906H34.7569V35.2969H34.4375V35.3906H34.5694ZM35.0278 49.8984C35.0278 49.8398 35.0278 49.7695 35.0069 49.7109C34.9861 49.6758 34.9722 49.6172 34.9514 49.582C34.9306 49.5469 34.8958 49.5234 34.875 49.4883C34.8403 49.4883 34.7986 49.4531 34.7639 49.4531C34.7431 49.4531 34.7083 49.4883 34.6667 49.4883C34.6319 49.5234 34.6111 49.5469 34.5903 49.582C34.5556 49.6172 34.5347 49.6758 34.5347 49.7109C34.5139 49.7695 34.5139 49.8398 34.5139 49.8984C34.5139 49.9336 34.5139 49.9922 34.5347 50.0625C34.5347 50.0977 34.5556 50.1562 34.5903 50.1914C34.6111 50.2266 34.625 50.25 34.6667 50.2852C34.7014 50.3203 34.7431 50.3203 34.7639 50.3203C34.7986 50.3203 34.8403 50.3203 34.875 50.2852C34.8958 50.25 34.9306 50.2266 34.9514 50.1914C34.9722 50.1562 34.9861 50.0977 35.0069 50.0625C35.0278 49.9922 35.0278 49.9336 35.0278 49.8984ZM35.25 35.2852H35.1528L35.0417 35.6953L34.9306 35.2852H34.8333V35.918H34.8889V35.4375L35 35.8477H35.0764L35.1736 35.4375V35.918H35.25V35.2852ZM35.5556 25.8516C35.5556 16.9219 31.2431 9.64453 25.9375 9.64453C24.0486 9.64453 22.1944 10.6055 20.625 12.3516C25.6319 19.3008 25.7083 32.4492 20.625 39.3633C22.1944 41.1211 24.0625 42.0703 25.9375 42.0703C31.2431 42.082 35.5556 34.8164 35.5556 25.8516Z" fill="white"/>
</g>
</svg>
