<svg width="152" height="38" viewBox="0 0 152 38" fill="none" xmlns="http://www.w3.org/2000/svg">
<rect width="38" height="38" rx="10" fill="#FF4500"/>
<rect x="38.5" y="0.5" width="37" height="37" rx="9.5" fill="white" stroke="#FF4500"/>
<rect x="76.5" y="0.5" width="37" height="37" rx="9.5" fill="white" stroke="#FF4500"/>
<rect x="114.5" y="0.5" width="37" height="37" rx="9.5" fill="white" stroke="#FF4500"/>
<path d="M20.6172 27H18.5312V12.5508L14.9453 14.1562V12.1875L20.2891 9.85547H20.6172V27Z" fill="white"/>
<path d="M61.9805 27H52.4414V25.4414L57.3047 18.9961C58.0391 18.0039 58.5469 17.1914 58.8281 16.5586C59.1172 15.918 59.2617 15.2422 59.2617 14.5312C59.2617 13.625 59.0508 12.8906 58.6289 12.3281C58.207 11.7656 57.6523 11.4844 56.9648 11.4844C56.0977 11.4844 55.4258 11.7852 54.9492 12.3867C54.4805 12.9805 54.2461 13.8398 54.2461 14.9648H52.1719C52.1719 13.3945 52.6016 12.125 53.4609 11.1562C54.3203 10.1875 55.4883 9.70312 56.9648 9.70312C58.3242 9.70312 59.3945 10.1211 60.1758 10.957C60.957 11.7852 61.3477 12.8906 61.3477 14.2734C61.3477 15.9609 60.4688 17.957 58.7109 20.2617L54.9141 25.2305H61.9805V27Z" fill="#FF4500"/>
<path d="M93.0898 17.4141H94.4141C95.2656 17.4141 95.9219 17.1523 96.3828 16.6289C96.8438 16.1055 97.0742 15.3906 97.0742 14.4844C97.0742 12.4844 96.3008 11.4844 94.7539 11.4844C94.0117 11.4844 93.4297 11.7539 93.0078 12.293C92.5859 12.832 92.375 13.5391 92.375 14.4141H90.3125C90.3125 13.0469 90.7266 11.9219 91.5547 11.0391C92.3906 10.1484 93.457 9.70312 94.7539 9.70312C96.0977 9.70312 97.1641 10.125 97.9531 10.9688C98.7422 11.8047 99.1367 12.9922 99.1367 14.5312C99.1367 15.3203 98.9297 16.0586 98.5156 16.7461C98.1094 17.4258 97.5781 17.9258 96.9219 18.2461C98.5312 18.8398 99.3359 20.1719 99.3359 22.2422C99.3359 23.7656 98.9102 24.9805 98.0586 25.8867C97.2148 26.7852 96.1094 27.2344 94.7422 27.2344C93.3906 27.2344 92.2969 26.8086 91.4609 25.957C90.6328 25.0977 90.2188 23.9453 90.2188 22.5H92.293C92.293 23.4062 92.5117 24.1289 92.9492 24.668C93.3867 25.1992 93.9844 25.4648 94.7422 25.4648C95.5156 25.4648 96.1289 25.2031 96.582 24.6797C97.043 24.1562 97.2734 23.3594 97.2734 22.2891C97.2734 20.2188 96.293 19.1836 94.332 19.1836H93.0898V17.4141Z" fill="#FF4500"/>
<path d="M137.705 20.2626L130.417 28.9929C130.066 29.4139 129.496 29.4139 129.145 28.9929L128.295 27.9746C127.944 27.5543 127.943 26.8731 128.293 26.4517L134.069 19.5003L128.293 12.5488C127.943 12.1275 127.944 11.4463 128.295 11.0259L129.145 10.0077C129.496 9.58663 130.066 9.58663 130.417 10.0077L137.705 18.7379C138.057 19.1589 138.057 19.8416 137.705 20.2626Z" fill="#FF4500"/>
</svg>
