<svg width="40" height="60" viewBox="0 0 40 60" fill="none" xmlns="http://www.w3.org/2000/svg">
<g id="cc-paypal-brands 1">
<path id="Vector" d="M12.9375 30.2578C12.9375 31.6875 12.2639 32.7773 11.4097 32.7773C10.7708 32.7773 10.2986 32.168 10.2986 31.0195C10.2986 29.5898 10.9583 28.4414 11.8056 28.4414C12.4514 28.4414 12.9375 29.1094 12.9375 30.2578ZM5.59028 24.5742H5.26389C5.15972 24.5742 5.05556 24.6914 5.04167 24.8906L4.74306 28.0195L5.3125 27.9844C6.07639 27.9844 6.66667 27.8086 6.80556 26.3203C6.96528 24.75 6.375 24.5742 5.59028 24.5742ZM25.3125 24.5742H25C24.875 24.5742 24.7917 24.6914 24.7778 24.8906L24.4861 28.0195L25.0417 27.9844C25.9444 27.9844 26.5694 27.6328 26.5694 25.875C26.5625 24.6328 25.9028 24.5742 25.3125 24.5742ZM40 9.375V50.625C40 53.7305 38.5069 56.25 36.6667 56.25H3.33333C1.49306 56.25 0 53.7305 0 50.625V9.375C0 6.26953 1.49306 3.75 3.33333 3.75H36.6667C38.5069 3.75 40 6.26953 40 9.375ZM8.90972 25.2422C8.90972 22.7812 7.78472 21.9609 6.5 21.9609H3.72222C3.54861 21.9609 3.375 22.1953 3.36111 22.5117L2.22222 34.4766C2.20139 34.7109 2.30556 34.9453 2.44444 34.9453H3.76389C3.95139 34.9453 4.125 34.6055 4.14583 34.2773L4.45833 31.1602C4.52778 30.3164 5.375 30.6094 5.70833 30.6094C7.69444 30.6094 8.90972 28.6172 8.90972 25.2422ZM14.7569 26.2734H13.4375C13.1736 26.2734 13.1597 26.918 13.1458 27.2344C12.7431 26.2383 12.1597 26.0625 11.5 26.0625C9.79861 26.0625 8.5 28.582 8.5 31.3594C8.5 33.6445 9.34722 35.1328 10.7014 35.1328C11.3264 35.1328 12.1042 34.5586 12.5417 33.7383C12.5069 33.9141 12.4722 34.2891 12.4722 34.4648C12.4722 34.7344 12.5417 34.9336 12.6944 34.9336H13.8889C14.0764 34.9336 14.2361 34.5938 14.2708 34.2656L14.9792 26.7305C15 26.5078 14.8958 26.2734 14.7569 26.2734ZM17.5694 37.7461L21.9931 26.8945C22.0278 26.8359 22.0278 26.7773 22.0278 26.6953C22.0278 26.4961 21.9236 26.2852 21.8056 26.2852H20.4722C20.3542 26.2852 20.2292 26.4023 20.1597 26.5781L18.3194 31.1484L17.5556 26.7539C17.5 26.4961 17.3472 26.2852 17.1736 26.2852H15.875C15.7569 26.2852 15.6528 26.4961 15.6528 26.6953C15.6528 26.8359 17.0069 33.3516 17.125 33.9727C16.9375 34.418 15.7014 37.3242 15.7014 37.6758C15.7014 37.8867 15.8056 38.0508 15.9236 38.0508H17.2569C17.3819 38.0391 17.5 37.9219 17.5694 37.7461ZM28.6319 25.2422C28.6319 22.7812 27.5069 21.9609 26.2222 21.9609H23.4653C23.2778 21.9609 23.1042 22.1953 23.0833 22.5117L21.9583 34.4648C21.9444 34.6992 22.0486 34.9336 22.1806 34.9336H23.6042C23.7431 34.9336 23.8472 34.7578 23.8819 34.5586L24.1944 31.1602C24.2639 30.3164 25.1111 30.6094 25.4444 30.6094C27.4167 30.6094 28.6319 28.6172 28.6319 25.2422ZM34.4792 26.2734H33.1597C32.8958 26.2734 32.8819 26.918 32.8611 27.2344C32.4792 26.2383 31.8889 26.0625 31.2153 26.0625C29.5139 26.0625 28.2153 28.582 28.2153 31.3594C28.2153 33.6445 29.0625 35.1328 30.4167 35.1328C31.0625 35.1328 31.8403 34.5586 32.2569 33.7383C32.2361 33.9141 32.1875 34.2891 32.1875 34.4648C32.1875 34.7344 32.2569 34.9336 32.4097 34.9336H33.6111C33.7986 34.9336 33.9583 34.5938 33.9931 34.2656L34.7014 26.7305C34.7222 26.5078 34.6181 26.2734 34.4792 26.2734ZM37.7778 22.3711C37.7778 22.1367 37.6736 21.9609 37.5556 21.9609H36.2708C36.1667 21.9609 36.0625 22.1016 36.0486 22.2773L34.9236 34.4648L34.9028 34.5234C34.9028 34.7344 35.0069 34.9336 35.1458 34.9336H36.2917C36.4653 34.9336 36.6389 34.5938 36.6528 34.2656L37.7778 22.4062V22.3711ZM31.5278 28.4414C30.6806 28.4414 30.0208 29.5781 30.0208 31.0195C30.0208 32.1563 30.5069 32.7773 31.1458 32.7773C31.9792 32.7773 32.6528 31.6992 32.6528 30.2578C32.6597 29.1094 32.1736 28.4414 31.5278 28.4414Z" fill="white"/>
</g>
</svg>
