<svg width="86" height="86" viewBox="0 0 86 86" fill="none" xmlns="http://www.w3.org/2000/svg">
<g id="couch-solid 1">
<path id="Vector" d="M21.5 37.625V48.375H64.5V37.625C64.5 31.6957 68.3566 26.875 73.1 26.875H77.4C77.4 17.9727 71.6219 10.75 64.5 10.75H21.5C14.3781 10.75 8.6 17.9727 8.6 26.875H12.9C17.6434 26.875 21.5 31.6957 21.5 37.625ZM77.4 32.25H73.1C70.7216 32.25 68.8 34.652 68.8 37.625V53.75H17.2V37.625C17.2 34.652 15.2784 32.25 12.9 32.25H8.6C3.85656 32.25 0 37.0707 0 43C0 46.9641 1.74688 50.3906 4.3 52.2551V72.5625C4.3 74.0406 5.2675 75.25 6.45 75.25H15.05C16.2325 75.25 17.2 74.0406 17.2 72.5625V69.875H68.8V72.5625C68.8 74.0406 69.7675 75.25 70.95 75.25H79.55C80.7325 75.25 81.7 74.0406 81.7 72.5625V52.2551C84.2531 50.3906 86 46.9641 86 43C86 37.0707 82.1434 32.25 77.4 32.25Z" fill="black"/>
</g>
</svg>
