<svg width="40" height="60" viewBox="0 0 40 60" fill="none" xmlns="http://www.w3.org/2000/svg">
<g id="twitter-brands 1">
<path id="Vector" d="M35.8883 17.7794C35.9137 18.3123 35.9137 18.8454 35.9137 19.3784C35.9137 35.6346 27.665 54.3657 12.5888 54.3657C7.94414 54.3657 3.62945 52.3478 0 48.8454C0.659922 48.9596 1.29437 48.9977 1.97969 48.9977C5.81211 48.9977 9.34008 47.0561 12.1573 43.7439C8.55328 43.6296 5.53297 40.0891 4.49234 35.2159C5 35.3301 5.50758 35.4062 6.04063 35.4062C6.77664 35.4062 7.51273 35.2539 8.19797 34.9875C4.44164 33.8453 1.6243 28.8961 1.6243 22.919V22.7668C2.71563 23.6805 3.98477 24.2515 5.32984 24.3276C3.12172 22.1194 1.67508 18.3504 1.67508 14.0864C1.67508 11.8022 2.08109 9.70832 2.7918 7.8809C6.82734 15.3428 12.8934 20.2158 19.6953 20.7489C19.5684 19.8352 19.4923 18.8835 19.4923 17.9317C19.4923 11.155 23.1471 5.63477 27.6902 5.63477C30.0506 5.63477 32.1826 7.11953 33.6801 9.51801C35.5328 8.98504 37.3095 7.95707 38.8831 6.54848C38.2739 9.40387 36.9795 11.8023 35.2791 13.3251C36.9288 13.0587 38.5278 12.3733 39.9998 11.4216C38.8833 13.858 37.4873 16.028 35.8883 17.7794Z" fill="white"/>
</g>
</svg>
