<svg width="40" height="60" viewBox="0 0 40 60" fill="none" xmlns="http://www.w3.org/2000/svg">
<g id="cc-visa-brands 1">
<path id="Vector" d="M32.6458 27.1055C32.6458 27.1055 33.1736 31.4648 33.2917 32.3789H30.9722C31.2014 31.3359 32.0833 27.2812 32.0833 27.2812C32.0694 27.3164 32.3125 26.2148 32.4514 25.5352L32.6458 27.1055ZM40 9.375V50.625C40 53.7305 38.5069 56.25 36.6667 56.25H3.33333C1.49306 56.25 0 53.7305 0 50.625V9.375C0 6.26953 1.49306 3.75 3.33333 3.75H36.6667C38.5069 3.75 40 6.26953 40 9.375ZM10.5903 38.8125L14.9792 20.625H12.0278L9.29861 33.0469L9 30.5273L8.02778 22.1602C7.86806 21 7.375 20.6719 6.76389 20.625H2.27083L2.22222 20.9883C3.31944 21.457 4.29861 22.1367 5.15278 22.9922L7.63889 38.8125H10.5903ZM17.1458 38.8359L18.8958 20.625H16.1042L14.3611 38.8359H17.1458ZM26.8611 32.8828C26.875 30.8086 26.125 29.2266 24.5208 27.9258C23.5417 27.0938 22.9444 26.5312 22.9444 25.6758C22.9583 24.9023 23.4514 24.1055 24.5486 24.1055C25.4583 24.0703 26.125 24.4336 26.625 24.7969L26.875 24.9961L27.2569 21.0586C26.7083 20.6953 25.8333 20.2852 24.7569 20.2852C22 20.2852 20.0625 22.7695 20.0486 26.3086C20.0278 28.9219 21.4375 30.375 22.4931 31.2539C23.5694 32.1445 23.9375 32.7305 23.9375 33.5156C23.9236 34.7344 23.0625 35.2969 22.2639 35.2969C21.1528 35.2969 20.5556 35.0039 19.6458 34.3242L19.2778 34.0312L18.8889 38.1211C19.5417 38.625 20.75 39.0703 22 39.0938C24.9306 39.1055 26.8403 36.6562 26.8611 32.8828ZM36.6667 38.8359L34.4167 20.625H32.2569C31.5903 20.625 31.0833 20.9531 30.7986 22.1367L26.6528 38.8359H29.5833C29.5833 38.8359 30.0625 36.5859 30.1667 36.1055H33.75C33.8333 36.75 34.0833 38.8359 34.0833 38.8359H36.6667Z" fill="white"/>
</g>
</svg>
