<svg width="40" height="60" viewBox="0 0 40 60" fill="none" xmlns="http://www.w3.org/2000/svg">
<g id="youtube-brands 1">
<path id="Vector" d="M38.1705 14.541C37.7343 11.7695 36.4492 9.58676 34.8174 8.84602C31.8598 7.5 20 7.5 20 7.5C20 7.5 8.14026 7.5 5.18255 8.84602C3.55081 9.58687 2.26567 11.7695 1.82949 14.541C1.03699 19.5645 1.03699 30.0455 1.03699 30.0455C1.03699 30.0455 1.03699 40.5265 1.82949 45.55C2.26567 48.3214 3.55081 50.4132 5.18255 51.154C8.14026 52.5 20 52.5 20 52.5C20 52.5 31.8597 52.5 34.8174 51.154C36.4492 50.4132 37.7343 48.3214 38.1705 45.55C38.963 40.5265 38.963 30.0455 38.963 30.0455C38.963 30.0455 38.963 19.5645 38.1705 14.541ZM16.1212 39.5614V20.5295L26.0336 30.0457L16.1212 39.5614Z" fill="white"/>
</g>
</svg>
